<svg viewBox="0 0 20 20" fill="none" xmlns="http://www.w3.org/2000/svg">
  <path
    d="M3.5 7.924h1.13v.332c.311-.262.69-.392 1.137-.392a1.94 1.94 0 0 1 1.434.61c.405.407.608.89.608 1.447 0 .578-.2 1.065-.6 1.462-.4.397-.88.595-1.442.595-.441 0-.82-.136-1.137-.407V13.5H3.5V7.924Zm1.052 1.997c0 .286.109.537.327.753.218.216.478.324.78.324.31 0 .57-.105.778-.316.213-.216.32-.47.32-.761 0-.291-.107-.543-.32-.754a1.049 1.049 0 0 0-.779-.316 1.07 1.07 0 0 0-.779.324c-.218.21-.327.46-.327.746ZM9.04 8.452c.4-.397.88-.596 1.44-.596.442 0 .821.136 1.138.407v-1.62h1.13v5.275h-1.13v-.332c-.312.261-.69.392-1.138.392a1.965 1.965 0 0 1-1.44-.61c-.4-.407-.6-.89-.6-1.447 0-.578.2-1.068.6-1.47ZM9.49 9.92c0 .291.104.542.312.753.213.211.475.317.787.317.3 0 .56-.106.779-.317a1.029 1.029 0 0 0 0-1.507 1.07 1.07 0 0 0-.78-.324c-.311 0-.573.108-.786.324a1.037 1.037 0 0 0-.312.754ZM13.531 7.924h.663v-.15c0-.292.07-.538.21-.739.146-.2.332-.34.561-.414.229-.08.47-.121.725-.121l.21.008c.14 0 .34.04.6.12v.806a2.033 2.033 0 0 0-.452-.098 2.77 2.77 0 0 0-.18-.015.86.86 0 0 0-.404.098c-.125.066-.187.184-.187.354v.151h1.145v.942h-1.099l.008 3.052h-1.114l-.023-3.052h-.663v-.942Z"
    fill="#001016"/>
  <path
    d="M.75 4.5A2.25 2.25 0 0 1 3 2.25h14a2.25 2.25 0 0 1 2.25 2.25v11A2.25 2.25 0 0 1 17 17.75H3A2.25 2.25 0 0 1 .75 15.5v-11Z"
    stroke="#001016" stroke-width="1.5"/>
</svg>