<svg viewBox="0 0 70 70" fill="none" xmlns="http://www.w3.org/2000/svg">
  <path fill-rule="evenodd" clip-rule="evenodd"
        d="M.074.074c-.04.04-.074 15.79-.074 35V70h70V0H35.074C15.864 0 .114.033.074.074ZM68.006 35v32.896H2.104V2.104h65.902V35ZM24.698 11.636c-1.662.1-3.973.482-4.604.761-.25.111-.563.317-.694.458-.464.499-.22 1.526.498 2.09.276.218.28.218.85-.011 2.433-.98 5.712-1.42 8.958-1.202 2.314.155 4.076.615 4.076 1.064 0 .224-.737.535-1.828.768-.487.105-.925.225-.972.268-.047.043.09.307.303.587 1.389 1.819 3.163 5.075 3.999 7.339.49 1.329 1.205 4.103 1.395 5.418.12.823.167.95.354.95.12 0 .97-.084 1.889-.188 2.373-.267 7.972-.266 9.978.003 3.816.51 7.312 1.475 10.356 2.857l.942.427-.443-.39c-.773-.682-2.613-1.864-3.988-2.563-4.276-2.17-9.117-3.316-14.327-3.389l-1.702-.024-.428-1.218c-.899-2.56-2.788-5.98-4.609-8.346-.392-.509-.697-.935-.678-.948.02-.013.375-.164.79-.336 1.83-.761 1.87-1.715.107-2.64-1.908-1.003-4.135-1.551-7.064-1.74-.914-.06-1.686-.101-1.717-.093-.03.008-.679.051-1.441.098Zm-7.475 5.708c-.183.025-.806.098-1.384.163-2.264.255-4.33.774-5.094 1.28-.994.657-.814 1.774.423 2.632l.45.311.92-.344c1.673-.628 4.094-1.143 6.9-1.47 1.845-.216 6.964-.184 8.06.05 1.427.303 1.87.632 1.461 1.084-.246.273-1.53.942-2.95 1.54l-.962.404.719.81c3.593 4.047 5.29 7.128 6.3 11.436l.303 1.292.346-.045c3.77-.498 9.93-.59 14.025-.207 5.13.48 10.758 1.98 14.517 3.874.42.211.796.384.837.384.136 0-.977-.936-1.939-1.63-3.948-2.847-9.765-4.902-16.405-5.795-1.184-.16-2.627-.25-4.652-.295l-2.935-.064-.422-.97c-1.217-2.8-3.534-5.85-6.154-8.098l-.706-.606.981-.547c1.284-.716 2.037-1.426 2.037-1.922 0-.856-.725-1.438-2.548-2.047-2.767-.924-4.609-1.188-8.584-1.23-1.766-.02-3.361-.015-3.544.01Zm.997 15.627c-1.85.16-4.108.685-5.226 1.213-.674.319-1.253.93-1.253 1.324 0 .426.278.873.82 1.317l.492.403 1.033-.5c2.264-1.096 4.183-1.555 6.515-1.56 2.26-.003 4.069.416 5.727 1.327.954.525 1.937 1.26 1.857 1.39-.036.058-.239.105-.45.105-1.228 0-2.957.633-3.408 1.246-.316.429-.285 1.215.074 1.924.396.782.51.857 1 .652.593-.247 2.438-.688 3.452-.825 1.955-.263 1.692-.309 1.992.352.743 1.631 1.1 3.914.929 5.936-.357 4.22-3.23 7.966-7.13 9.298-1.926.657-4.653.812-6.701.38-5.739-1.21-9.769-5.917-10.524-12.29a26.268 26.268 0 0 0-.207-1.467c-.078-.38-.083-.373-.284.388-.262.991-.364 3.98-.18 5.287.775 5.497 4.536 9.682 9.936 11.056 4.646 1.182 9.41.3 13.013-2.41 3.314-2.492 5.082-6.102 5.081-10.373 0-2.14-.394-4.002-1.267-5.986l-.19-.433 1.31.067c3.437.178 7.62 1.081 11.088 2.396 2.805 1.063 6.705 2.93 9.482 4.54.541.314 1.004.55 1.029.525.091-.091-1.831-1.788-3.139-2.77-5.894-4.43-12.525-6.915-20.03-7.509l-1.66-.131-.715-.663c-2.132-1.98-4.733-3.329-7.488-3.885-1.652-.333-3.49-.453-4.978-.324Zm30.79 13.382c.474 1.446.517 3.535.098 4.721-.56 1.588-1.757 2.952-3.196 3.643-1.155.553-1.977.705-3.463.637-1.898-.087-3.47-.778-4.922-2.163-.354-.338-.644-.575-.644-.528 0 .238.748 1.557 1.203 2.122.64.795 1.937 1.688 2.914 2.007 2.427.793 5.221.442 7.117-.895l.325-.229.23.316c1.002 1.382 1.735 2.059 3.008 2.78 2.646 1.497 6.028 1.526 8.684.073.954-.521 2.197-1.768 2.642-2.649 1.198-2.375 1.094-5.255-.26-7.196l-.296-.424.092.61c.159 1.046.096 2.976-.12 3.71a6.343 6.343 0 0 1-3.286 3.92c-1.278.63-2.26.82-3.922.757-1.048-.039-1.524-.113-2.248-.348-1.087-.354-2.396-1.203-3.053-1.98-.447-.53-.448-.533-.253-.832.363-.555.819-1.624.944-2.215.177-.835.153-2.52-.046-3.294-.237-.923-.645-1.718-1.17-2.283-.272-.291-.421-.394-.377-.26Z"
        fill="#fff"/>
</svg>