<svg viewBox="0 0 21 20" fill="none" xmlns="http://www.w3.org/2000/svg">
  <path
    d="m9.97 11.114.53.53.53-.53 2.917-2.917a.118.118 0 0 1 .037-.027.042.042 0 0 1 .016-.004.04.04 0 0 1 .016.004c.008.003.02.01.037.027.017.016.024.03.027.037a.041.041 0 0 1 .003.016c0 .003 0 .009-.003.016a.119.119 0 0 1-.027.037l-3.5 3.5a.371.371 0 0 1-.032.03.306.306 0 0 1-.041 0 .371.371 0 0 1-.033-.03l-3.5-3.5a.119.119 0 0 1-.027-.037.041.041 0 0 1-.003-.016c0-.004 0-.01.003-.016a.119.119 0 0 1 .027-.037.118.118 0 0 1 .037-.027A.041.041 0 0 1 7 8.166c.004 0 .009.001.016.004.008.003.02.01.037.027l2.917 2.917Z"
    fill="#001016" stroke="#001016" stroke-width="1.5"/>
</svg>