<svg viewBox="0 0 196 177" fill="none" xmlns="http://www.w3.org/2000/svg">
  <path
    d="M13.464 90.796c4.84-5.142 15.426-13.157 14.518-22.231-.907-9.074-1.814-4.537-1.36-14.972.453-10.436 21.323-29.945 44.008 0-1.212 1.385-4.04 3.564-8.35 5.174M42.5 65.389c0-4.356 5.143-4.84 7.714-4.537 4.809 0 8.85-.884 12.066-2.085M41.14 83.083c7.108 3.479 21.324 4.084 21.324-21.324l-.184-2.992M18.91 115.296c-7.713-6.805 3.176-29.944 19.963-11.342 16.786 18.601 14.519 24.953 15.88 24.5 1.36-.454 11.795-7.26 28.583-9.982"
    stroke="#001016" stroke-width="2"/>
  <path
    d="m47.038 113.481 29.49-2.268s3.622-5.575 7.26-7.259c3.552-1.645 9.982-.908 9.982-.908M88.325 103.046l-10.435-8.62M164.548 152.046V34.991H146.4M82.882 86.713V34.991h16.787m0 0V20.472h24.954M99.669 34.991H146.4m0 0V20.472h-21.777m0 0V.51"
    stroke="#001016" stroke-width="2"/>
  <path
    d="M102.845 45.88v6.805M134.603 45.88v6.805M134.603 92.611v6.806M134.603 137.981v6.806M118.724 45.88v6.805M102.845 57.222v6.806M134.603 57.222v6.806M134.603 103.954v6.805M134.603 149.324v6.806M118.724 57.222v6.806M102.845 69.019v6.805M134.603 69.019v6.805M134.603 115.75v6.806M118.724 69.019v6.805M102.845 80.815v6.806M134.603 80.815v6.806M134.603 127.546v6.806"
    stroke="#009FDA" stroke-width="2"/>
  <path
    d="m121.445 92.611-17.694 12.413m-12.704 8.911 12.704-8.911m0 0c.454 6.751-2.405 15.722-12.704 20.254-11.342 4.991-20.843 19.047-36.296 16.787-11.095-1.622-16.152-6.624-24.5-14.972M3.937 112.12C7.112 96.392 19.272 70.742 42.5 93.972"
    stroke="#001016" stroke-width="2"/>
</svg>